<svg width="44" height="44" viewBox="0 0 44 44" fill="none" xmlns="http://www.w3.org/2000/svg">
<circle opacity="0.05" cx="22" cy="22" r="22" fill="#FF6969"/>
<path fill-rule="evenodd" clip-rule="evenodd" d="M27.6254 17.0978C27.9171 17.0978 28.1598 17.3399 28.1598 17.648V17.9329C28.1598 18.2335 27.9171 18.4831 27.6254 18.4831H15.2016C14.9093 18.4831 14.6665 18.2335 14.6665 17.9329V17.648C14.6665 17.3399 14.9093 17.0978 15.2016 17.0978H17.3873C17.8313 17.0978 18.2177 16.7822 18.3176 16.3369L18.4321 15.8257C18.61 15.1293 19.1954 14.6667 19.8654 14.6667H22.961C23.6237 14.6667 24.2157 15.1293 24.387 15.7889L24.5095 16.3362C24.6086 16.7822 24.995 17.0978 25.4397 17.0978H27.6254ZM26.5148 27.511C26.743 25.3843 27.1426 20.3319 27.1426 20.2809C27.1571 20.1265 27.1068 19.9803 27.0069 19.8626C26.8998 19.7524 26.7642 19.6872 26.6147 19.6872H16.2169C16.0668 19.6872 15.9239 19.7524 15.8247 19.8626C15.7241 19.9803 15.6745 20.1265 15.6818 20.2809C15.6832 20.2903 15.6975 20.4682 15.7215 20.7658C15.8279 22.0876 16.1245 25.769 16.3161 27.511C16.4517 28.7944 17.2938 29.601 18.5135 29.6302C19.4547 29.6519 20.4243 29.6594 21.4158 29.6594C22.3498 29.6594 23.2983 29.6519 24.2686 29.6302C25.5306 29.6085 26.3719 28.8161 26.5148 27.511Z" fill="#FF6969"/>
</svg>
