<svg width="26" height="24" viewBox="0 0 26 24" fill="none" xmlns="http://www.w3.org/2000/svg">
<path fill-rule="evenodd" clip-rule="evenodd" d="M19.1219 0C20.8384 0 22.4896 0.706667 23.7043 1.97467C24.9203 3.24 25.6 4.94667 25.6 6.73333V17.2667C25.6 20.9867 22.6944 24 19.1219 24H6.4768C2.90432 24 0 20.9867 0 17.2667V6.73333C0 3.01333 2.89152 0 6.4768 0H19.1219ZM21.158 8.71979L21.2604 8.61312C21.5663 8.22645 21.5663 7.66645 21.2463 7.27979C21.0684 7.08112 20.8239 6.95979 20.5692 6.93312C20.3004 6.91845 20.0444 7.01312 19.8511 7.19979L14.0796 11.9998C13.3372 12.6411 12.2735 12.6411 11.5196 11.9998L5.7596 7.19979C5.36152 6.89312 4.81112 6.93312 4.4796 7.29312C4.134 7.65312 4.0956 8.22645 4.38872 8.62646L4.5564 8.79979L10.3804 13.5331C11.0972 14.1198 11.9663 14.4398 12.8764 14.4398C13.7839 14.4398 14.6684 14.1198 15.3839 13.5331L21.158 8.71979Z" fill="#06152B"/>
</svg>
