<svg width="24" height="24" viewBox="0 0 24 24" fill="none" xmlns="http://www.w3.org/2000/svg">
<circle cx="10" cy="8" r="5" fill="#838383"/>
<path d="M17.1421 20.3825C17.6038 20.278 17.8806 19.7981 17.676 19.3713C17.1242 18.2203 16.2173 17.2088 15.0419 16.4465C13.5955 15.5085 11.8232 15 10 15C8.17681 15 6.40455 15.5085 4.95811 16.4465C3.78266 17.2088 2.87577 18.2202 2.32396 19.3713C2.11935 19.7981 2.39623 20.278 2.85786 20.3825V20.3825C7.55976 21.4474 12.4402 21.4474 17.1421 20.3825V20.3825Z" fill="#838383"/>
<path fill-rule="evenodd" clip-rule="evenodd" d="M19.2104 9.66675C19.4693 9.66675 19.6861 9.86294 19.7119 10.1206C19.7519 10.5206 20.2213 10.7151 20.5325 10.4605C20.7328 10.2965 21.0249 10.3111 21.2079 10.4941L21.5058 10.792C21.6888 10.975 21.7034 11.2671 21.5394 11.4674C21.2848 11.7786 21.4793 12.248 21.8793 12.288C22.137 12.3138 22.3332 12.5306 22.3332 12.7895V13.2107C22.3332 13.4696 22.137 13.6864 21.8794 13.7121C21.4794 13.7521 21.2849 14.2215 21.5395 14.5326C21.7034 14.733 21.6889 15.025 21.5058 15.208L21.2079 15.5059C21.0249 15.6889 20.7329 15.7035 20.5325 15.5396C20.2213 15.285 19.7519 15.4795 19.7119 15.8795C19.6861 16.1372 19.4693 16.3334 19.2104 16.3334H18.7893C18.5303 16.3334 18.3136 16.1372 18.2878 15.8796C18.2478 15.4795 17.7784 15.2851 17.4672 15.5397C17.2668 15.7037 16.9748 15.6891 16.7917 15.506L16.4939 15.2082C16.3108 15.0251 16.2963 14.7331 16.4602 14.5327C16.7148 14.2215 16.5204 13.7521 16.1203 13.7121C15.8627 13.6864 15.6665 13.4696 15.6665 13.2107L15.6665 12.7895C15.6665 12.5306 15.8627 12.3138 16.1204 12.288C16.5205 12.248 16.7149 11.7786 16.4603 11.4674C16.2963 11.2669 16.3108 10.9749 16.4939 10.7918L16.7917 10.494C16.9748 10.3109 17.2668 10.2964 17.4672 10.4603C17.7784 10.7149 18.2478 10.5205 18.2878 10.1205C18.3136 9.86292 18.5303 9.66675 18.7892 9.66675H19.2104ZM18.9998 14.3334C19.7362 14.3334 20.3332 13.7365 20.3332 13.0001C20.3332 12.2637 19.7362 11.6667 18.9998 11.6667C18.2635 11.6667 17.6665 12.2637 17.6665 13.0001C17.6665 13.7365 18.2635 14.3334 18.9998 14.3334Z" fill="#838383"/>
</svg>
