<svg width="86" height="86" viewBox="0 0 86 86" fill="none" xmlns="http://www.w3.org/2000/svg">
<path d="M32.2498 35.8333L45.8413 46.0269C46.2597 46.3408 46.8494 46.2791 47.1939 45.8854L71.6665 17.9167" stroke="#5CB30B" stroke-width="7" stroke-linecap="round"/>
<path d="M75.25 43C75.25 49.7384 73.1393 56.3076 69.2143 61.7849C65.2893 67.2622 59.7472 71.3725 53.3664 73.5385C46.9856 75.7045 40.0866 75.8174 33.6383 73.8613C27.19 71.9053 21.5164 67.9785 17.4144 62.6326C13.3123 57.2866 10.9877 50.79 10.7673 44.0552C10.5468 37.3204 12.4414 30.6857 16.1851 25.0829C19.9288 19.4801 25.3334 15.1906 31.6399 12.817C37.9465 10.4434 44.8381 10.1049 51.3469 11.8489" stroke="#5CB30B" stroke-width="7" stroke-linecap="round"/>
</svg>
