<svg width="86" height="86" viewBox="0 0 86 86" fill="none" xmlns="http://www.w3.org/2000/svg">
<path d="M35.8335 53.75L35.8335 43" stroke="#D86262" stroke-width="5" stroke-linecap="round"/>
<path d="M50.1665 53.75L50.1665 43" stroke="#D86262" stroke-width="5" stroke-linecap="round"/>
<path d="M10.75 25.0833H75.25H68.5C66.6144 25.0833 65.6716 25.0833 65.0858 25.6691C64.5 26.2549 64.5 27.1977 64.5 29.0833V67.6667C64.5 69.5523 64.5 70.4951 63.9142 71.0809C63.3284 71.6666 62.3856 71.6666 60.5 71.6666H25.5C23.6144 71.6666 22.6716 71.6666 22.0858 71.0809C21.5 70.4951 21.5 69.5523 21.5 67.6666V29.0833C21.5 27.1977 21.5 26.2549 20.9142 25.6691C20.3284 25.0833 19.3856 25.0833 17.5 25.0833H10.75Z" stroke="#D86262" stroke-width="7" stroke-linecap="round"/>
<path d="M36.0774 12.0779C36.4857 11.697 37.3854 11.3603 38.637 11.1202C39.8887 10.8801 41.4222 10.75 42.9998 10.75C44.5775 10.75 46.111 10.8801 47.3626 11.1202C48.6142 11.3603 49.514 11.697 49.9223 12.0779" stroke="#D86262" stroke-width="7" stroke-linecap="round"/>
</svg>
